<svg width="32" height="32" viewBox="0 0 32 32" fill="none" xmlns="http://www.w3.org/2000/svg">
<rect x="6" y="24" width="20" height="1" fill="white"/>
<path fill-rule="evenodd" clip-rule="evenodd" d="M18.4001 21C18.7315 21 19.0001 20.7314 19.0001 20.4L19.0001 15L21.2943 15.0001C21.795 15.0002 22.0754 14.4231 21.7661 14.0294L16.4718 7.29114C16.2316 6.98539 15.7685 6.98539 15.5282 7.29114L10.234 14.0293C9.92472 14.423 10.2052 15 10.7058 15L13.0001 15L13.0001 20.4C13.0001 20.7314 13.2688 21 13.6001 21L18.4001 21ZM13.0001 14L13.0001 14L14.0001 14L14.0001 20L18.0001 20L18.0001 15L18 15L18.0001 14L18.4665 14L19.0001 14L19.0001 14L20.4713 14.0001L16 8.30927L11.5288 14L13.0001 14Z" fill="white"/>
</svg>
