<svg width="32" height="32" viewBox="0 0 32 32" fill="none" xmlns="http://www.w3.org/2000/svg">
<g opacity="0.2">
<path d="M9.14286 14.2701C9.14286 12.2836 10.3188 10.4855 12.1388 9.68929L15.5992 8.17536C15.8547 8.06357 16.1453 8.06357 16.4008 8.17536L19.8612 9.68929C21.6812 10.4855 22.8571 12.2836 22.8571 14.2701V18.8581C22.8571 19.2908 22.9507 19.7183 23.1315 20.1115L23.674 21.2911C23.8263 21.6223 23.5843 22 23.2197 22H8.78027C8.41567 22 8.17367 21.6223 8.326 21.2911L8.86847 20.1115C9.04925 19.7183 9.14286 19.2908 9.14286 18.8581V14.2701Z" fill="#1A1C17"/>
<path d="M19 24.0001C19 25.6569 17.6569 27.0001 16 27.0001C14.3431 27.0001 13 25.6569 13 24.0001C13 24.0001 14.3431 24 16 24C17.6569 24 19 24.0001 19 24.0001Z" fill="#1A1C17"/>
<path d="M14 6.99996C14 5.89541 14.8954 5 16 5C17.1046 5 18 5.89542 18 6.99997C18 6.99997 17.1046 7 16 7C14.8954 7 14 6.99996 14 6.99996Z" fill="#1A1C17"/>
</g>
</svg>
