<svg width="32" height="32" viewBox="0 0 32 32" fill="none" xmlns="http://www.w3.org/2000/svg">
<path d="M7.5 12.8992C7.5 10.7257 8.78003 8.75603 10.7662 7.87327L15.3908 5.81792C15.7786 5.64554 16.2214 5.64554 16.6092 5.81792L21.2338 7.87327C23.22 8.75603 24.5 10.7257 24.5 12.8992V21.5132C24.5 21.8894 24.5606 22.2631 24.6796 22.62L25.3063 24.5H6.68346L7.33573 22.4467C7.44459 22.104 7.5 21.7466 7.5 21.387V12.8992Z" fill="#F92F3B" stroke="#F92F3B"/>
<path d="M19.5 26C19.5 26.8 18 28.5 16 28.5C14 28.5 12.5 26.8 12.5 26" stroke="#F92F3B"/>
<path d="M13.5 5C13.5 4 14.25 2.5 16 2.5C17.75 2.5 18.5 4 18.5 5" stroke="#F92F3B"/>
<path fill-rule="evenodd" clip-rule="evenodd" d="M9 6V5C6.23858 5 4 7.23858 4 10H5C5 7.79086 6.79086 6 9 6Z" fill="#F92F3B"/>
<path fill-rule="evenodd" clip-rule="evenodd" d="M23 6V5C25.7614 5 28 7.23858 28 10H27C27 7.79086 25.2091 6 23 6Z" fill="#F92F3B"/>
</svg>
