<svg width="98" height="36" viewBox="0 0 98 36" fill="none" xmlns="http://www.w3.org/2000/svg">
<path d="M1.25613 32.8591V31.6932C1.87184 31.9397 2.58076 32.0629 3.38535 32.0629C3.98633 32.0629 4.2856 31.8682 4.2856 31.4812C4.2856 31.1115 4.08445 30.9241 3.6797 30.9241H2.67888C1.5554 30.9241 0.991211 30.3671 0.991211 29.2554C0.991211 28.0895 1.81051 27.5078 3.45158 27.5078C4.14823 27.5078 4.80318 27.6138 5.41643 27.8258V28.9917C4.80073 28.7452 4.13351 28.6219 3.41478 28.6219C2.65926 28.6219 2.28149 28.8167 2.28149 29.2037C2.28149 29.5734 2.50227 29.7607 2.94135 29.7607H3.8367C5.06565 29.7607 5.68136 30.3178 5.68136 31.4294C5.68136 32.5953 4.89885 33.177 3.33138 33.177C2.56359 33.177 1.87184 33.0711 1.25613 32.8591Z" fill="#93968B"/>
<path d="M8.57374 25.5508V26.6624H7.17798V25.5508H8.57374ZM8.57374 27.5646V33.1254H7.17798V27.5646H8.57374Z" fill="#93968B"/>
<path d="M10.4084 33.1228V27.562H11.4878L11.6521 28.368C12.1476 27.8307 12.7437 27.562 13.4379 27.562C14.1321 27.562 14.6104 27.8159 14.8656 28.3237C15.4322 27.8159 16.0234 27.562 16.6415 27.562C17.9122 27.562 18.55 28.267 18.55 29.6744V33.1228H17.1542V29.6227C17.1542 29.004 16.877 28.6959 16.3226 28.6959C15.9081 28.6959 15.5082 28.8832 15.1256 29.2578V33.1228H13.7298V29.6374C13.7298 29.0089 13.4723 28.6959 12.9596 28.6959C12.5524 28.6959 12.1673 28.8832 11.8042 29.2578V33.1228H10.4084Z" fill="#93968B"/>
<path d="M20.387 27.7915C21.1204 27.6386 21.898 27.5647 22.7173 27.5647C24.5963 27.5647 25.5358 28.4447 25.5358 30.2071C25.5358 32.1518 24.6601 33.1255 22.9111 33.1255C22.5382 33.1255 22.1629 33.0367 21.7827 32.8617V35.1393H20.387V27.7915ZM21.7827 31.6737C22.131 31.8635 22.5039 31.9596 22.9062 31.9596C23.7378 31.9596 24.1548 31.3729 24.1548 30.1972C24.1548 29.1989 23.6936 28.6985 22.7737 28.6985C22.3763 28.6985 22.0476 28.7232 21.7827 28.7725V31.6737Z" fill="#93968B"/>
<path d="M28.5039 25.5508V33.1229H27.1082V25.5508H28.5039Z" fill="#93968B"/>
<path d="M32.6742 27.5647C34.3545 27.5647 35.1934 28.4274 35.1934 30.1479C35.1934 30.3771 35.1787 30.6064 35.1468 30.8356H31.4722C31.4722 31.6194 32.0437 32.0113 33.1893 32.0113C33.7486 32.0113 34.3054 31.9596 34.8647 31.8536V32.9653C34.3765 33.0712 33.7829 33.123 33.0838 33.123C31.0772 33.123 30.074 32.174 30.074 30.2785C30.0764 28.4693 30.9423 27.5647 32.6742 27.5647ZM31.4722 29.862H33.8344V29.8201C33.8344 29.051 33.4469 28.6665 32.6742 28.6665C31.9358 28.664 31.536 29.0633 31.4722 29.862Z" fill="#93968B"/>
<path d="M44.5515 32.7902C43.7052 33.012 42.8761 33.1229 42.0691 33.1229C40.2808 33.1229 39.3855 32.1592 39.3855 30.2316C39.3855 28.452 40.2612 27.5622 42.0102 27.5622C42.3831 27.5622 42.7633 27.6509 43.1533 27.8259V25.5483H44.5491V32.7902H44.5515ZM43.1558 29.014C42.8688 28.8242 42.5057 28.728 42.0691 28.728C41.2007 28.728 40.7665 29.2161 40.7665 30.1946C40.7665 31.3556 41.2179 31.9373 42.1206 31.9373C42.4861 31.9373 42.8295 31.8856 43.1533 31.7845V29.014H43.1558Z" fill="#93968B"/>
<path d="M46.1238 30.3425C46.1238 28.4791 47.0363 27.5474 48.8638 27.5474C50.6913 27.5474 51.6038 28.4791 51.6038 30.3425C51.6038 32.2035 50.6913 33.1328 48.8638 33.1328C47.0437 33.1353 46.1311 32.2035 46.1238 30.3425ZM48.8638 32.0655C49.7591 32.0655 50.208 31.4838 50.208 30.3228C50.208 29.189 49.7591 28.6221 48.8638 28.6221C47.9684 28.6221 47.5195 29.189 47.5195 30.3228C47.5195 31.4838 47.9684 32.0655 48.8638 32.0655Z" fill="#93968B"/>
<path d="M57.2607 32.965C56.8044 33.071 56.3285 33.1228 55.8379 33.1228C53.8706 33.1228 52.887 32.1615 52.887 30.2364C52.887 28.4543 53.8706 27.562 55.8379 27.562C56.3285 27.562 56.8044 27.6138 57.2607 27.7198V28.8314C56.8044 28.7254 56.3653 28.6737 55.9434 28.6737C54.8371 28.6737 54.2827 29.1938 54.2827 30.2364C54.2827 31.4196 54.8371 32.0111 55.9434 32.0111C56.3653 32.0111 56.8044 31.9594 57.2607 31.8534V32.965Z" fill="#93968B"/>
<path d="M63.6801 27.5647V33.1255H62.5885L62.4192 32.4156C61.7839 32.8888 61.1093 33.1255 60.3955 33.1255C59.2646 33.1255 58.698 32.4526 58.698 31.1067V27.5647H60.0938V31.0698C60.0938 31.6835 60.3611 31.9916 60.8959 31.9916C61.3497 31.9916 61.8109 31.8092 62.2818 31.4469V27.5647H63.6801Z" fill="#93968B"/>
<path d="M65.5173 33.1228V27.562H66.5967L66.761 28.368C67.2565 27.8307 67.8526 27.562 68.5468 27.562C69.241 27.562 69.7193 27.8159 69.9744 28.3237C70.5411 27.8159 71.1323 27.562 71.7504 27.562C73.0211 27.562 73.6588 28.267 73.6588 29.6744V33.1228H72.2631V29.6227C72.2631 29.004 71.9859 28.6959 71.4315 28.6959C71.017 28.6959 70.6171 28.8832 70.2344 29.2578V33.1228H68.8387V29.6374C68.8387 29.0089 68.5811 28.6959 68.0685 28.6959C67.6613 28.6959 67.2761 28.8832 66.9131 29.2578V33.1228H65.5173Z" fill="#93968B"/>
<path d="M77.8292 27.5647C79.5095 27.5647 80.3484 28.4274 80.3484 30.1479C80.3484 30.3771 80.3337 30.6064 80.3018 30.8356H76.6296C76.6296 31.6194 77.2012 32.0113 78.3467 32.0113C78.906 32.0113 79.4629 31.9596 80.0222 31.8536V32.9653C79.534 33.0712 78.9404 33.123 78.2413 33.123C76.2347 33.123 75.2314 32.174 75.2314 30.2785C75.2314 28.4693 76.0973 27.5647 77.8292 27.5647ZM76.6272 29.862H78.9894V29.8201C78.9894 29.051 78.6019 28.6665 77.8292 28.6665C77.0908 28.664 76.691 29.0633 76.6272 29.862Z" fill="#93968B"/>
<path d="M81.9158 33.1228V27.562H82.9951L83.1693 28.3779C83.6991 27.8331 84.305 27.562 84.982 27.562C86.2919 27.562 86.9469 28.2472 86.9469 29.6177V33.1228H85.5511V29.6177C85.5511 29.004 85.2469 28.6959 84.6386 28.6959C84.1848 28.6959 83.7433 28.8783 83.3115 29.2406V33.1228H81.9158Z" fill="#93968B"/>
<path d="M88.7058 26.6624H89.7385L89.9495 27.562H91.3403V28.6737H90.1016V31.2322C90.1016 31.7523 90.3248 32.0112 90.7712 32.0112H91.3403V33.1228H90.0967C89.1694 33.1228 88.7058 32.6224 88.7058 31.6242V26.6624Z" fill="#93968B"/>
<path d="M92.8072 32.8591V31.6932C93.4229 31.9397 94.1318 32.0629 94.9364 32.0629C95.5374 32.0629 95.8366 31.8682 95.8366 31.4812C95.8366 31.1115 95.6355 30.9241 95.2307 30.9241H94.2299C93.1064 30.9241 92.5422 30.3671 92.5422 29.2554C92.5422 28.0895 93.3615 27.5078 95.0026 27.5078C95.6993 27.5078 96.3542 27.6138 96.9675 27.8258V28.9917C96.3518 28.7452 95.6845 28.6219 94.9658 28.6219C94.2103 28.6219 93.8325 28.8167 93.8325 29.2037C93.8325 29.5734 94.0508 29.7607 94.4924 29.7607H95.3877C96.6167 29.7607 97.2324 30.3178 97.2324 31.4294C97.2324 32.5953 96.4499 33.177 94.8824 33.177C94.1146 33.177 93.4204 33.0711 92.8072 32.8591Z" fill="#93968B"/>
<path d="M7.52367 20.1751C5.32333 20.1751 3.60377 19.5515 2.36501 18.3067C1.12379 17.0619 0.449207 15.3513 0.336369 13.1773C0.299574 12.1839 0.4026 11.2152 0.642994 10.2687C0.885842 9.32219 1.31512 8.45702 1.92837 7.67072C2.69371 6.71435 3.57433 6.09812 4.57025 5.81713C5.56617 5.53613 6.63568 5.39563 7.77141 5.39563L11.1001 5.36852V0H14.9881V20.1751H7.52367ZM11.1026 17.0003V8.5704C10.953 8.59012 10.8033 8.59752 10.6561 8.59752C10.5065 8.59752 10.3667 8.59752 10.2367 8.59752C10.0503 8.59752 9.86383 8.59752 9.6774 8.59752C9.49097 8.59752 9.30455 8.59752 9.11812 8.59752C8.78206 8.59752 8.4509 8.60245 8.12465 8.61231C7.7984 8.62217 7.46725 8.64435 7.13119 8.68379C6.83192 8.70351 6.54737 8.78731 6.27754 8.93767C6.00771 9.08803 5.75996 9.2655 5.53673 9.47255C5.14425 9.86693 4.86951 10.3205 4.71252 10.8356C4.55308 11.3508 4.45496 11.8709 4.41817 12.3959C4.41817 12.5463 4.41817 12.6868 4.41817 12.8174C4.41817 12.948 4.41817 13.0811 4.41817 13.2118C4.47459 15.1985 5.03877 16.3397 6.11074 16.6404C7.1827 16.9412 8.46316 17.0816 9.95704 17.0619C10.1435 17.0422 10.3348 17.0348 10.531 17.0348C10.7273 17.0348 10.9186 17.0348 11.1051 17.0348V17.0003H11.1026Z" fill="#414338"/>
<path d="M30.8446 18.4054C30.1357 19.1178 29.282 19.6428 28.2861 19.978C27.2877 20.3157 26.2575 20.4833 25.1953 20.4833C24.1332 20.4833 23.1078 20.3157 22.1193 19.978C21.1307 19.6403 20.282 19.1252 19.5755 18.4325C18.8494 17.7202 18.3024 16.8698 17.9393 15.8765C17.5763 14.8831 17.3948 13.8626 17.3948 12.8126C17.3948 11.7626 17.5763 10.7421 17.9393 9.74875C18.3024 8.7554 18.847 7.90502 19.5755 7.19267C20.2844 6.50003 21.1356 5.97994 22.134 5.6324C23.1299 5.28485 24.1602 5.1123 25.2248 5.1123C26.2697 5.1123 27.2902 5.28485 28.2861 5.6324C29.282 5.97994 30.1357 6.50003 30.8446 7.19267C31.5707 7.90502 32.1177 8.75787 32.4807 9.74875C32.8438 10.7421 33.0253 11.7626 33.0253 12.8126C33.0253 13.8626 32.8438 14.8831 32.4807 15.8765C32.1177 16.8698 31.5707 17.7226 30.8446 18.4325V18.4054ZM23.883 17.0276C24.013 17.0842 24.1381 17.1311 24.2607 17.168C24.3809 17.205 24.4987 17.2346 24.6091 17.2519C25.5044 17.3825 26.3433 17.2149 27.1258 16.7466C27.9083 16.2782 28.4308 15.5955 28.6908 14.6958C28.7841 14.3778 28.8552 14.0352 28.9018 13.6704C28.9484 13.3056 28.9729 12.9358 28.9729 12.5612C28.9362 11.7379 28.7399 10.9541 28.3867 10.2146C28.0334 9.47515 27.4644 8.93534 26.6818 8.60012C26.515 8.52617 26.336 8.46948 26.1495 8.4325C25.9631 8.39553 25.7865 8.36595 25.6172 8.3487C24.7587 8.27475 23.9566 8.47194 23.2133 8.9378C22.4676 9.40613 21.9647 10.0618 21.7022 10.9048C21.609 11.2228 21.5379 11.5555 21.4937 11.9031C21.4471 12.2506 21.4324 12.5908 21.452 12.9284C21.4692 13.8084 21.6704 14.6391 22.053 15.4155C22.4357 16.192 23.0465 16.7416 23.8854 17.0596V17.0276H23.883Z" fill="#414338"/>
<path d="M43.4284 17.0002H47.5666V20.1749H42.2804C41.2746 20.1749 40.291 20.0665 39.3294 19.852C38.3678 19.6376 37.5068 19.1643 36.744 18.4323C36.1111 17.8136 35.6156 17.0889 35.2623 16.2558C34.9067 15.4226 34.6834 14.5649 34.5902 13.6849C34.5902 13.5543 34.5853 13.4187 34.5755 13.2782C34.5657 13.1377 34.5608 13.0021 34.5608 12.8715C34.5608 12.7039 34.5657 12.5338 34.5755 12.3662C34.5853 12.1986 34.5976 12.0285 34.6172 11.8609C34.6908 11.0006 34.9067 10.1577 35.2599 9.33192C35.6131 8.50865 36.1086 7.78644 36.7415 7.16775C37.5068 6.43815 38.3678 5.95996 39.327 5.73565C40.2861 5.51135 41.2697 5.39796 42.2779 5.39796L47.5641 5.37085V8.5752H43.4259C43.3695 8.59492 43.3082 8.60231 43.2444 8.60231C43.1782 8.60231 43.1193 8.60231 43.0629 8.60231C42.95 8.60231 42.8446 8.60231 42.7415 8.60231C42.6385 8.60231 42.5404 8.60231 42.4472 8.60231C42.0743 8.60231 41.7113 8.62943 41.3556 8.68612C41.0024 8.74281 40.6663 8.86359 40.3499 9.05092C39.6606 9.46256 39.1994 10.0172 38.9664 10.7098C38.7333 11.4024 38.618 12.1246 38.618 12.874C38.6377 13.6036 38.7677 14.3036 39.0105 14.9666C39.2534 15.6322 39.6998 16.1621 40.3523 16.554C40.6688 16.7414 41.0048 16.8621 41.358 16.9188C41.7113 16.9755 42.0743 17.0125 42.4496 17.0322C42.5625 17.0322 42.6778 17.0322 42.798 17.0322C42.9181 17.0322 43.0359 17.0322 43.1463 17.0322C43.2027 17.0322 43.2542 17.0322 43.3008 17.0322C43.3474 17.0322 43.3891 17.0322 43.4259 17.0322V17.0002H43.4284Z" fill="#414338"/>
<path d="M58.1094 17.0842C58.1462 17.104 58.183 17.1114 58.2222 17.1114C58.259 17.1114 58.2958 17.1114 58.335 17.1114C58.8011 17.0916 59.2304 16.9906 59.6204 16.8033C60.0129 16.6159 60.2067 16.2314 60.2067 15.6522C60.2067 15.1099 60.0203 14.7426 59.6474 14.5553C59.2745 14.3679 58.8722 14.257 58.4454 14.2176C58.389 14.2176 58.3326 14.2176 58.2786 14.2176C58.2222 14.2176 58.1658 14.2176 58.1118 14.2176L54.7561 14.1905C53.1911 14.2102 51.9548 13.9933 51.0496 13.5447C50.1445 13.0961 49.6833 11.9524 49.6661 10.116C49.6465 8.39307 50.1126 7.17541 51.0643 6.46306C52.0161 5.75071 53.2819 5.39577 54.8665 5.39577L63.2288 5.36865V8.45962H56.3506C56.2941 8.47934 56.2426 8.48673 56.196 8.48673C56.1494 8.48673 56.0979 8.48673 56.0415 8.48673C55.9115 8.48673 55.7839 8.48673 55.6637 8.48673C55.5411 8.48673 55.4062 8.48673 55.259 8.48673C54.9229 8.50645 54.6016 8.5804 54.2949 8.71104C53.9883 8.84167 53.7872 9.0857 53.694 9.44064C53.5443 10.0963 53.6743 10.5449 54.0864 10.7889C54.4961 11.033 54.972 11.1537 55.5116 11.1537L59.0341 11.1266C60.4127 11.1463 61.5681 11.4692 62.5027 12.0953C63.4348 12.7239 63.9279 13.806 63.9843 15.3416C63.9843 15.3613 63.9843 15.3736 63.9843 15.3835C63.9843 15.3933 63.9843 15.4081 63.9843 15.4254C64.0039 16.6233 63.663 17.7153 62.9639 18.6987C62.2647 19.6822 61.2615 20.1727 59.9589 20.1727H49.9188V17.0818H58.1094V17.0842Z" fill="#414338"/>
<path d="M79.2225 18.4054C78.5136 19.1178 77.6599 19.6428 76.664 19.978C75.6657 20.3157 74.6379 20.4833 73.5732 20.4833C72.5086 20.4833 71.4857 20.3157 70.4972 19.978C69.5086 19.6403 68.6599 19.1252 67.9534 18.4325C67.2273 17.7202 66.6803 16.8698 66.3173 15.8765C65.9542 14.8831 65.7727 13.8626 65.7727 12.8126C65.7727 11.7626 65.9542 10.7421 66.3173 9.74875C66.6803 8.7554 67.2273 7.90502 67.9534 7.19267C68.6623 6.50003 69.5135 5.97994 70.5119 5.6324C71.5103 5.28485 72.5405 5.1123 73.6027 5.1123C74.6477 5.1123 75.6681 5.28485 76.664 5.6324C77.6599 5.97994 78.5136 6.50003 79.2225 7.19267C79.9486 7.90502 80.4956 8.75787 80.8587 9.74875C81.2217 10.7421 81.4032 11.7626 81.4032 12.8126C81.4032 13.8626 81.2217 14.8831 80.8587 15.8765C80.4956 16.8698 79.951 17.7226 79.2225 18.4325V18.4054ZM72.2609 17.0276C72.3909 17.0842 72.516 17.1311 72.6387 17.168C72.7589 17.205 72.8766 17.2346 72.987 17.2519C73.8823 17.3825 74.7213 17.2149 75.5038 16.7466C76.2863 16.2782 76.8088 15.5955 77.0688 14.6958C77.162 14.3778 77.2307 14.0352 77.2773 13.6704C77.3239 13.3056 77.3484 12.9358 77.3484 12.5612C77.3116 11.7379 77.1154 10.9541 76.7622 10.2146C76.4065 9.47515 75.8398 8.93534 75.0573 8.60012C74.8905 8.52617 74.7114 8.46948 74.525 8.4325C74.3386 8.39553 74.162 8.36595 73.9927 8.3487C73.1342 8.27475 72.332 8.47194 71.5888 8.9378C70.8431 9.40613 70.3402 10.0618 70.0777 10.9048C69.9845 11.2228 69.9134 11.5555 69.8668 11.9031C69.8201 12.2506 69.8054 12.5908 69.8251 12.9284C69.8447 13.8084 70.0434 14.6391 70.426 15.4155C70.8087 16.192 71.4195 16.7416 72.2584 17.0596V17.0276H72.2609Z" fill="#64B904"/>
<path d="M91.1072 5.36597C93.045 5.38569 94.5561 5.77021 95.6379 6.51707C96.7196 7.26639 97.2593 8.69849 97.2593 10.8158V20.1725H93.3713V11.2644C93.3713 10.2341 93.2045 9.54148 92.8684 9.18408C92.5323 8.82913 91.8431 8.64919 90.7981 8.64919L87.6656 8.62208V20.1701H83.7776V5.36597H91.1072Z" fill="#64B904"/>
</svg>
